<?xml version="1.0" encoding="UTF-8"?>
<!DOCTYPE svg PUBLIC "-//W3C//DTD SVG 1.1//EN" "http://www.w3.org/Graphics/SVG/1.1/DTD/svg11.dtd">
<svg xmlns="http://www.w3.org/2000/svg" version="1.1" width="52px" height="52px" style="shape-rendering:geometricPrecision; text-rendering:geometricPrecision; image-rendering:optimizeQuality; fill-rule:evenodd; clip-rule:evenodd" xmlns:xlink="http://www.w3.org/1999/xlink">
<g><path style="opacity:0.932" fill="#d3193c" d="M 18.5,-0.5 C 23.1667,-0.5 27.8333,-0.5 32.5,-0.5C 41.8333,2.83333 48.1667,9.16667 51.5,18.5C 51.5,23.1667 51.5,27.8333 51.5,32.5C 48.1667,41.8333 41.8333,48.1667 32.5,51.5C 27.8333,51.5 23.1667,51.5 18.5,51.5C 9.14075,48.1408 2.80742,41.8074 -0.5,32.5C -0.5,27.8333 -0.5,23.1667 -0.5,18.5C 2.83333,9.16667 9.16667,2.83333 18.5,-0.5 Z"/></g>
<g><path style="opacity:1" fill="#eee9ee" d="M 19.5,2.5 C 39.1993,1.70038 48.6993,11.0337 48,30.5C 43.335,44.0871 33.835,49.9204 19.5,48C 2.76351,40.1236 -1.40316,27.957 7,11.5C 10.6164,7.62023 14.783,4.62023 19.5,2.5 Z"/></g>
<g><path style="opacity:1" fill="#d31d3f" d="M 20.5,7.5 C 29.5941,6.0426 36.0941,9.37593 40,17.5C 39.8351,23.5925 39.5017,29.5925 39,35.5C 37.764,37.5384 35.9306,38.7051 33.5,39C 32.8333,40.3333 32.1667,41.6667 31.5,43C 27.5,43.6667 23.5,43.6667 19.5,43C 18.8095,41.9326 18.3095,40.7659 18,39.5C 15.4896,38.8913 13.4896,37.558 12,35.5C 11.7078,29.9 11.3745,24.2333 11,18.5C 12.5992,13.406 15.7658,9.73934 20.5,7.5 Z"/></g>
<g><path style="opacity:1" fill="#ecd7df" d="M 18.5,13.5 C 19.3764,13.3691 20.0431,13.7025 20.5,14.5C 19.5,15.8333 18.5,17.1667 17.5,18.5C 18.5,19.8333 19.5,21.1667 20.5,22.5C 17.9208,22.6764 15.9208,21.3431 14.5,18.5C 15.8569,16.8144 17.1902,15.1477 18.5,13.5 Z"/></g>
<g><path style="opacity:1" fill="#eddee5" d="M 26.5,13.5 C 27.3764,13.3691 28.0431,13.7025 28.5,14.5C 22.0272,26.3612 21.3605,26.0279 26.5,13.5 Z"/></g>
<g><path style="opacity:1" fill="#ecd6df" d="M 30.5,13.5 C 37.8661,16.2119 38.1994,19.5452 31.5,23.5C 31.1667,23.1667 30.8333,22.8333 30.5,22.5C 31.5,21.1667 32.5,19.8333 33.5,18.5C 32.0476,17.0603 31.0476,15.3936 30.5,13.5 Z"/></g>
<g><path style="opacity:1" fill="#ede1e7" d="M 15.5,26.5 C 18.2622,27.3795 20.9289,28.5462 23.5,30C 18.6479,33.9507 15.9813,32.7841 15.5,26.5 Z"/></g>
<g><path style="opacity:1" fill="#ede0e7" d="M 33.5,26.5 C 36.0168,28.0771 36.0168,29.9104 33.5,32C 30.9969,32.8736 28.9969,32.207 27.5,30C 29.7274,29.059 31.7274,27.8923 33.5,26.5 Z"/></g>
<g><path style="opacity:1" fill="#ede7ed" d="M 24.5,33.5 C 26.7409,34.2998 27.7409,35.9664 27.5,38.5C 26.1667,38.5 24.8333,38.5 23.5,38.5C 23.6287,36.7839 23.962,35.1172 24.5,33.5 Z"/></g>
</svg>
